<svg width="110" height="110" viewBox="0 0 110 110" fill="none" xmlns="http://www.w3.org/2000/svg">
<mask id="path-1-inside-1_500_218" fill="white">
<path d="M79.4686 26.6105C75.8904 23.1816 71.6719 20.4911 67.0539 18.6925C62.4359 16.8939 57.5089 16.0225 52.5542 16.1281C47.5994 16.2337 42.714 17.3141 38.1768 19.3077C33.6396 21.3013 29.5395 24.1691 26.1106 27.7473C22.6817 31.3254 19.9912 35.544 18.1926 40.1619C16.394 44.7799 15.5226 49.7069 15.6282 54.6617C15.7337 59.6164 16.8142 64.5019 18.8078 69.0391C20.8014 73.5763 23.6692 77.6763 27.2474 81.1052L53.358 53.8579L79.4686 26.6105Z"/>
</mask>
<path d="M79.4686 26.6105C75.8904 23.1816 71.6719 20.4911 67.0539 18.6925C62.4359 16.8939 57.5089 16.0225 52.5542 16.1281C47.5994 16.2337 42.714 17.3141 38.1768 19.3077C33.6396 21.3013 29.5395 24.1691 26.1106 27.7473C22.6817 31.3254 19.9912 35.544 18.1926 40.1619C16.394 44.7799 15.5226 49.7069 15.6282 54.6617C15.7337 59.6164 16.8142 64.5019 18.8078 69.0391C20.8014 73.5763 23.6692 77.6763 27.2474 81.1052L53.358 53.8579L79.4686 26.6105Z" fill="white" stroke="#243541" stroke-width="18" mask="url(#path-1-inside-1_500_218)"/>
<mask id="path-2-inside-2_500_218" fill="white">
<path d="M82.1814 28.8947C85.7596 32.3236 88.6273 36.4237 90.6209 40.9609C92.6146 45.498 93.695 50.3835 93.8006 55.3382C93.9061 60.293 93.0347 65.22 91.2361 69.838C89.4376 74.456 86.747 78.6745 83.3181 82.2526C79.8892 85.8308 75.7891 88.6986 71.2519 90.6922C66.7148 92.6858 61.8293 93.7663 56.8746 93.8718C51.9198 93.9774 46.9928 93.106 42.3748 91.3074C37.7568 89.5088 33.5383 86.8183 29.9602 83.3894L56.0708 56.142L82.1814 28.8947Z"/>
</mask>
<path d="M82.1814 28.8947C85.7596 32.3236 88.6273 36.4237 90.6209 40.9609C92.6146 45.498 93.695 50.3835 93.8006 55.3382C93.9061 60.293 93.0347 65.22 91.2361 69.838C89.4376 74.456 86.747 78.6745 83.3181 82.2526C79.8892 85.8308 75.7891 88.6986 71.2519 90.6922C66.7148 92.6858 61.8293 93.7663 56.8746 93.8718C51.9198 93.9774 46.9928 93.106 42.3748 91.3074C37.7568 89.5088 33.5383 86.8183 29.9602 83.3894L56.0708 56.142L82.1814 28.8947Z" fill="white" stroke="#243541" stroke-width="18" mask="url(#path-2-inside-2_500_218)"/>
</svg>
